<svg version="1.1" 
  xmlns="http://www.w3.org/2000/svg" 
  xmlns:xlink="http://www.w3.org/1999/xlink" 
  preserveAspectRatio="none"
  xml:space="preserve">
  
  <defs>
    <linearGradient id="G_bottom" x1="50%" x2="0" y1="0" y2="0.5">
      <stop offset="0%" stop-color="#0a1f53"/>
      <stop offset="100%" stop-color="#00a7be"/>
    </linearGradient>
    <linearGradient id="G_left1" x1="50%" x2="0" y1="0" y2="0.5">
      <stop offset="0%" stop-color="#bab3e5"/>
      <stop offset="20%" stop-color="#f6b592"/>
      <stop offset="100%" stop-color="#f6ebdb"/>
    </linearGradient>
    <linearGradient id="G_left2" x1="50%" x2="0" y1="0" y2="0.5">
      <stop offset="0%" stop-color="#dfcb9f"/>
      <stop offset="80%" stop-color="#ffe9d7"/>
      <stop offset="100%" stop-color="#e3b984"/>
    </linearGradient>
    <linearGradient id="G_left3" x1="50%" x2="0" y1="0" y2="0.5">
      <stop offset="0%" stop-color="#b0bb91"/>
      <stop offset="100%" stop-color="#10706c"/>
    </linearGradient>
    <linearGradient id="G_left4" x1="50%" x2="0" y1="0" y2="0.75">
      <stop offset="0%" stop-color="#00aca9"/>
      <stop offset="100%" stop-color="#a27944"/>
    </linearGradient>
    <linearGradient id="G_left5" x1="50%" x2="0" y1="0" y2="0.5">
      <stop offset="0%" stop-color="#0e1e38"/>
      <stop offset="100%" stop-color="#105e7e"/>
    </linearGradient>
    <linearGradient id="G_left6" x1="1" x2="0" y1="0" y2="0">
      <stop offset="0%" stop-color="#23a2b4"/>
      <stop offset="100%" stop-color="#00cca9"/>
    </linearGradient>
    <linearGradient id="G_left7" x1="0" x2="0" y1="1" y2="0.5">
      <stop offset="0%" stop-color="#00aca9"/>
      <stop offset="100%" stop-color="#a27944"/>
    </linearGradient>
  </defs>
  
  <polygon id="bottom" class="st0" fill="url(#G_bottom)" points="278.1,0 221.1,1080 1604.1,1080 1619.1,0 " />
  <path id="left1" fill="url(#G_left1)" class="st0" d="M546,0c0,0,170.7,208.7-56,524s346,556,346,556H0V0H546z">
    <animate
      begin="0s"
      repeatCount="indefinite"
      attributeName="d"
      dur="10s"
      values="M546,0c0,0,170.7,208.7-56,524s346,556,346,556H0V0H546z;
        M546,0c0,0,170.7,308.7-56,524s346,556,346,556H0V0H546z;
        M546,0c0,0,170.7,208.8-56,524s346,656,346,556H0V0H546z;
        M546,0c0,0,170.7,208.7-56,524s346,556,346,556H0V0H546z"
    />
  </path>
  <path id="left2" fill="url(#G_left2)" class="st0" d="M506,0c0,0,162,184-96,522s146.2,558,146.2,558H0V0H506z">
    <animate
      begin="0s"
      repeatCount="indefinite"
      attributeName="d"
      dur="14s"
      values="M506,0c0,0,162,184-96,522s146.2,558,146.2,558H0V0H506z;
        M506,0c0,0,162,184-96,522s146.2,458,146.2,558H0V0H506z;
        M506,0c0,0,162,184-96,522s146.2,558,246.2,558H0V0H506z;
        M506,0c0,0,162,184-96,522s146.2,558,146.2,558H0V0H506z"
    />
  </path>
  <path id="left3" fill="url(#G_left3)" class="st0" d="M386,0c0,0,152,180-56,506s48,576,190,574H0V0H386z">
    <animate
      begin="0s"
      repeatCount="indefinite"
      attributeName="d"
      dur="15s"
      values="M386,0c0,0,152,180-56,506s48,576,190,574H0V0H386z;
        M386,0c0,0,60,180-56,506s48,576,190,574H0V0H386z;
        M386,0c0,0,102,180-56,506s48,576,190,574H0V0H386z;
        M386,0c0,0,152,180-56,506s48,576,190,574H0V0H386z"
    />
  </path>
  <path id="left4" fill="url(#G_left4)" class="st0" d="M344,0c0,0,84,426-344,636V0H344z">
    <animate
      begin="0s"
      repeatCount="indefinite"
      attributeName="d"
      dur="5s"
      values="M344,0c0,0,84,426-344,636V0H344z;
        M344,0c0,0,84,466-344,636V0H344z;
        M344,0c50,0,84,426-344,636V0H344z;
        M344,0c0,0,84,426-344,636V0H344z"
    />
  </path>
  <path id="left5" fill="url(#G_left5)" class="st0" d="M310,0c0,0,47.7,336-316.2,478L0,0H310z">
    <animate
      begin="0s"
      repeatCount="indefinite"
      attributeName="d"
      dur="11s"
      values="M310,0c0,0,47.7,336-316.2,478L0,0H310z;
        M310,0c0,0,47.7,336-316.2,578L0,0H310z;
        M310,0c0,0,47.7,336-316.2,478L0,0H310z"
    />
  </path>
  <path id="left6" fill="url(#G_left6)" class="st0" d="M266,0c0,0,46,254-266,330V0H266z">
    <animate
      begin="0s"
      repeatCount="indefinite"
      attributeName="d"
      dur="8s"
      values="M266,0c0,0,46,254-266,330V0H266z;
        M266,0c0,100,46,254-266,330V0H266z;
        M266,0c0,0,46,254-266,330V0H266z"
    />
  </path>
  <path id="top1" fill="url(#G_bottom)" class="st0" d="M644,0c0,0,76,240,334,292s414-168,364-292H644z">
    <animate
      begin="0s"
      repeatCount="indefinite"
      attributeName="d"
      dur="10s"
      values="M644,0c0,0,76,240,334,292s414-168,364-292H644z;
        M700,0c0,0,76,240,334,292s414-168,364-292H644z;
        M644,0c0,0,76,240,334,292s414-168,364-292H644z"
    />
  </path>
  <path id="top2" fill="url(#G_bottom)" class="st0" d="M1114,250c0,0,210,20,228-250H788C788,0,808,226,1114,250z">
    <animate
      begin="0s"
      repeatCount="indefinite"
      attributeName="d"
      dur="5s"
      values="M1114,250c0,0,210,20,228-250H788C788,0,808,226,1114,250z;
        M1114,250c0,0,110,20,200-250H788C788,0,808,226,1114,250z;
        M1114,250c0,0,210,20,228-250H788C788,0,808,226,1114,250z"
    />
  </path>
  <path id="top3" fill="url(#G_bottom)" class="st0" d="M1065,136c0,0,139,6,165-136H836C836,0,868,116,1065,136z">
    <animate
      begin="0s"
      repeatCount="indefinite"
      attributeName="d"
      dur="6s"
      values="M1065,136c0,0,139,6,165-136H836C836,0,868,116,1065,136z;
        M1099,136c0,0,139,6,165-136H836C836,0,868,150,1065,136z;
        M1065,136c0,0,139,6,165-136H836C836,0,868,116,1065,136z"
    />
  </path>
  <path id="right1" fill="url(#G_bottom)" class="st0" d="M1430.1,0c0,0,243,180.6-264,339.6s-496.5,303-457.5,468s381.6,272.4,381.6,272.4l829.8,0V0H1430.1z">
    <animate
      begin="0s"
      repeatCount="indefinite"
      attributeName="d"
      dur="7s"
      values="M1430.1,0c0,0,243,180.6-264,339.6s-496.5,303-457.5,468s381.6,272.4,381.6,272.4l829.8,0V0H1430.1z;
        M1430.1,40c0,0,143,280.6-264,339.6s-496.5,303-457.5,468s381.6,272.4,381.6,272.4l829.8,0V0H1430.1z;
        M1430.1,0c0,0,243,180.6-264,339.6s-496.5,303-457.5,468s381.6,272.4,381.6,272.4l829.8,0V0H1430.1z"
    />
  </path>
  <path id="right2" fill="url(#G_bottom)" class="st0" d="M1577.5,0c0,0,61.1,281.1-289.9,378.6s-268.5,393-130.5,543s643.9,214.5,762.9-81V0H1577.5z">
    <animate
      begin="0s"
      repeatCount="indefinite"
      attributeName="d"
      dur="12s"
      values="M1577.5,0c0,0,61.1,281.1-289.9,378.6s-268.5,393-130.5,543s643.9,214.5,762.9-81V0H1577.5z;
        M1577.5,0c0,0,61.1,281.1-289.9,378.6s-268.5,493-130.5,643s643.9,414.5,762.9-81V0H1577.5z;
        M1577.5,0c0,0,61.1,281.1-289.9,378.6s-268.5,393-130.5,543s643.9,214.5,762.9-81V0H1577.5z"
    />
  </path>
  <path id="right3" fill="url(#G_bottom)" class="st0" d="M1608.6,6.6c0,0,208.5,186-105,348s-303,219-216,418.5c87,199.5,487.9,240,632.4,0V0h-323.4L1608.6,6.6z">
    <animate
      begin="0s"
      repeatCount="indefinite"
      attributeName="d"
      dur="11s"
      values="M1608.6,6.6c0,0,208.5,186-105,348s-303,219-216,418.5c87,199.5,487.9,240,632.4,0V0h-323.4L1608.6,6.6z;
        M1648.6,6.8c0,0,208.5,186-105,348s-303,219-216,418.5c87,199.5,487.9,240,632.4,0V0h-323.4L1608.6,6.6z;
        M1608.6,6.6c0,0,208.5,186-105,348s-303,219-216,418.5c87,199.5,487.9,240,632.4,0V0h-323.4L1608.6,6.6z"
    />
  </path>
  <path id="right4" fill="url(#G_bottom)" class="st0" d="M1703.1,0c0,0,219,288.6-94.5,387.6s-369,306-81,450S1920,733.9,1920,733.9V0H1703.1z">
    <animate
      begin="0s"
      repeatCount="indefinite"
      attributeName="d"
      dur="9s"
      values="M1703.1,0c0,0,219,288.6-94.5,387.6s-369,306-81,450S1920,733.9,1920,733.9V0H1703.1z;
        M1703.1,0c0,0,219,288.6-94.5,387.6s-369,406-81,450S1920,733.9,1920,733.9V0H1703.1z;
        M1703.1,0c0,0,219,288.6-94.5,387.6s-369,306-81,450S1920,733.9,1920,733.9V0H1703.1z"
    />
  </path>
  <path id="right5" fill="url(#G_bottom)" class="st0" d="M1920,272.1c0,0-98.5,188.3-306.9,205.9s-160.5,304.1-10.5,304.1s317.4-72,317.4-72V272.1z">
    <animate
      begin="0s"
      repeatCount="indefinite"
      attributeName="d"
      dur="14s"
      values="M1920,272.1c0,0-98.5,188.3-306.9,205.9s-160.5,304.1-10.5,304.1s317.4-72,317.4-72V272.1z;
        M1920,272.1c0,1-98.5,188.3-306.9,205.9s-160.5,304.1-10.5,304.1s317.4-72,317.4-72V272.1z;
        M1920,272.1c0,0-98.5,188.3-306.9,205.9s-160.5,304.1-10.5,304.1s317.4-72,317.4-72V272.1z"
    />
  </path>
  <path id="right6" fill="url(#G_bottom)" class="st0" d="M1920,365.1c0,0-62.5,135-224.4,147s-156,195-45,213c111,18,184.9,7.5,269.4-24V365.1z">
    <animate
      begin="0s"
      repeatCount="indefinite"
      attributeName="d"
      dur="6s"
      values="M1920,365.1c0,0-62.5,135-224.4,147s-156,195-45,213c111,18,184.9,7.5,269.4-24V365.1z;
        M1940,345.1c0,0-82.5,135-244.4,147s-176,195-45,213c111,18,184.9,7.5,269.4-24V365.1z;
        M1920,365.1c0,0-62.5,135-224.4,147s-156,195-45,213c111,18,184.9,7.5,269.4-24V365.1z"
    />
  </path>
  <path id="right7" fill="url(#G_bottom)" class="st0" d="M1920,413.1c0,0-56.5,117-167.4,135c-111,18-136.5,63-114,111c22.5,48,168.4,88.5,281.4,22.5V413.1z">
    <animate
      begin="0s"
      repeatCount="indefinite"
      attributeName="d"
      dur="13s"
      values="M1920,413.1c0,0-56.5,117-167.4,135c-111,18-136.5,63-114,111c22.5,48,168.4,88.5,281.4,22.5V413.1z;
        M1920,413.1c0,0-56.5,117-197.4,135c-111,18-136.5,63-114,111c22.5,48,168.4,88.5,281.4,22.5V413.1z;
        M1920,413.1c0,0-56.5,117-167.4,135c-111,18-136.5,63-114,111c22.5,48,168.4,88.5,281.4,22.5V413.1z"
    />
  </path>
</svg>
