<svg version="1.1" id="Layer_1" xmlns="http://www.w3.org/2000/svg" xmlns:xlink="http://www.w3.org/1999/xlink" x="0px" y="0px"
	 viewBox="0 0 1920 1080" style="enable-background:new 0 0 1920 1080;" xml:space="preserve">
<defs>
  <linearGradient id="Gradient2" x1="50%" x2="0" y1="0" y2="0.5">
    <stop offset="0%" stop-color="#0048be"/>
    <stop offset="100%" stop-color="#00a7be"/>
  </linearGradient>
  <linearGradient id="Gradient1" x1="0" x2=".5" y1=".5" y2="0.5">
    <stop offset="0%" stop-color="#0048be"/>
    <stop offset="100%" stop-color="#00a7be"/>
  </linearGradient>

</defs>
<path class="st0" fill="url(#Gradient2)" d="M1351.2,0c0,0,379.4,172.9-135.3,373.8c-450,108.8-547.1,225.9-514.7,429.6c52.9,199.7,188.6,291.9,254.1,277.2
	c3.1-0.7,6.3-1.1,9.5-1.1l955.3,0.5V0H1351.2z">
   
   <animateTransform 
    attributeName="transform"
    attributeType="XML"
    type="translate"
    dur="4s"
    values="0,25;-25,0;25,0;0,25"
    repeatCount="indefinite" />  
  </path>
<path class="st2" fill="url(#Gradient1)" d="M1515.9,0c0,0,291.2,135.4-2.9,350.1s-305.9,297.1-82.4,541.2S1920,804.5,1920,617.7c0-200,0-617.7,0-617.7
	H1515.9z">
     <animateTransform 
    attributeName="transform"
    attributeType="XML"
    type="translate"
    dur="5s"
    values="0,15;0,-15;0,15"
    repeatCount="indefinite" /> 
  </path>
</svg>
